<?xml version="1.0" standalone="no"?>
<!DOCTYPE svg PUBLIC "-//W3C//DTD SVG 20010904//EN"
 "http://www.w3.org/TR/2001/REC-SVG-20010904/DTD/svg10.dtd">
<svg version="1.0" xmlns="http://www.w3.org/2000/svg"
 width="99.000000pt" height="99.000000pt" viewBox="0 0 99.000000 99.000000"
 preserveAspectRatio="xMidYMid meet">
<metadata>
Created by potrace 1.14, written by Peter Selinger 2001-2017
</metadata>
<g transform="translate(0.000000,99.000000) scale(0.100000,-0.100000)"
fill="#000000" stroke="none">
<path d="M165 928 c-6 -20 -155 -845 -155 -863 0 -12 15 -15 80 -15 74 0 80 1
85 22 7 31 125 681 125 690 0 5 110 8 243 8 l244 0 -13 -67 c-20 -101 -25 -94
68 -91 l82 3 28 150 c15 83 27 156 28 163 0 9 -87 12 -405 12 -316 0 -407 -3
-410 -12z"/>
<path d="M546 348 c-26 -151 -15 -138 -106 -138 -66 0 -79 -3 -84 -17 -4 -16
-26 -131 -26 -140 0 -2 74 -3 164 -3 l164 0 16 93 c30 167 15 147 110 147 l82
0 12 70 c7 39 12 75 12 80 0 6 -63 10 -163 10 l-164 0 -17 -102z"/>
</g>
</svg>
